<svg width="45" height="45" viewBox="0 0 45 45" fill="none" xmlns="http://www.w3.org/2000/svg">
<path d="M22.4999 37.0413V43.327M30.357 33.8984V40.1841M14.6427 33.8984V40.1841M39.7856 2.46985H5.21415C4.38061 2.46985 3.58121 2.80097 2.99181 3.39037C2.40241 3.97977 2.07129 4.77917 2.07129 5.61271V24.4698C2.07129 25.3034 2.40241 26.1028 2.99181 26.6922C3.58121 27.2816 4.38061 27.6127 5.21415 27.6127H39.7856C40.6191 27.6127 41.4185 27.2816 42.0079 26.6922C42.5973 26.1028 42.9284 25.3034 42.9284 24.4698V5.61271C42.9284 4.77917 42.5973 3.97977 42.0079 3.39037C41.4185 2.80097 40.6191 2.46985 39.7856 2.46985Z" stroke="black" stroke-width="3" stroke-linecap="round" stroke-linejoin="round"/>
<path d="M22.4998 20.5413C23.2221 20.5413 23.9373 20.399 24.6046 20.1226C25.2719 19.8462 25.8782 19.4411 26.3889 18.9304C26.8996 18.4197 27.3048 17.8133 27.5812 17.146C27.8576 16.4788 27.9998 15.7636 27.9998 15.0413C27.9998 14.319 27.8576 13.6038 27.5812 12.9365C27.3048 12.2692 26.8996 11.6629 26.3889 11.1522C25.8782 10.6415 25.2719 10.2364 24.6046 9.95995C23.9373 9.68355 23.2221 9.54129 22.4998 9.54129C21.0411 9.54129 19.6422 10.1208 18.6107 11.1522C17.5793 12.1837 16.9998 13.5826 16.9998 15.0413C16.9998 16.5 17.5793 17.8989 18.6107 18.9304C19.6422 19.9618 21.0411 20.5413 22.4998 20.5413ZM9.22126 15.827C9.01288 15.827 8.81303 15.7442 8.66568 15.5969C8.51833 15.4495 8.43555 15.2497 8.43555 15.0413C8.43555 14.8329 8.51833 14.6331 8.66568 14.4857C8.81303 14.3384 9.01288 14.2556 9.22126 14.2556M9.22126 15.827C9.42965 15.827 9.62949 15.7442 9.77684 15.5969C9.92419 15.4495 10.007 15.2497 10.007 15.0413C10.007 14.8329 9.92419 14.6331 9.77684 14.4857C9.62949 14.3384 9.42965 14.2556 9.22126 14.2556M35.7784 15.827C35.57 15.827 35.3702 15.7442 35.2228 15.5969C35.0755 15.4495 34.9927 15.2497 34.9927 15.0413C34.9927 14.8329 35.0755 14.6331 35.2228 14.4857C35.3702 14.3384 35.57 14.2556 35.7784 14.2556M35.7784 15.827C35.9868 15.827 36.1866 15.7442 36.334 15.5969C36.4813 15.4495 36.5641 15.2497 36.5641 15.0413C36.5641 14.8329 36.4813 14.6331 36.334 14.4857C36.1866 14.3384 35.9868 14.2556 35.7784 14.2556" stroke="black" stroke-width="3" stroke-linecap="round" stroke-linejoin="round"/>
</svg>
