<svg width="22" height="22" viewBox="0 0 18 18" fill="none" xmlns="http://www.w3.org/2000/svg">
    <path d="M16.862 2.9684C17.1059 2.23632 17.0603 1.67204 16.7245 1.27532C16.328 0.939715 15.7636 0.894117 15.0314 1.13773C14.2993 1.38179 13.6435 1.79356 13.0638 2.37315L11.2337 4.20358L3.62713 2.38473C3.50509 2.34654 3.39071 2.37704 3.28402 2.47616L1.81977 3.94045C1.736 4.02443 1.70158 4.12737 1.71689 4.24937C1.73976 4.37154 1.80463 4.46294 1.91136 4.524L7.72226 7.71566L4.75956 10.6786L2.54046 10.0725C2.52523 10.0648 2.49482 10.0609 2.44903 10.0609C2.34222 10.0609 2.2546 10.0952 2.18592 10.1639L1.08787 11.2735C1.01163 11.3648 0.977373 11.4602 0.984986 11.5592C1.00013 11.6812 1.04969 11.769 1.13367 11.8225L4.01616 13.9844L6.17801 16.8671C6.24668 16.9511 6.33823 17.0005 6.45261 17.016H6.47549C6.5823 17.016 6.66992 16.9817 6.73859 16.9132L7.83661 15.8151C7.93573 15.7082 7.96626 15.59 7.92819 15.4604L7.3219 13.2411L10.2846 10.2779L13.4761 16.0896C13.5218 16.1888 13.6018 16.2498 13.7163 16.2727C13.7391 16.2804 13.7658 16.2841 13.7964 16.2841C13.8877 16.2841 13.9603 16.2612 14.0136 16.2155L15.478 15.1173C15.6074 15.0106 15.6532 14.8849 15.6153 14.74L13.7851 6.77803L15.6268 4.9363C16.2062 4.35648 16.6179 3.70048 16.862 2.9684Z" fill="#239DDE"/>
</svg>
